#N canvas 616 390 921 532 10;
#X obj 422 56 bng 15 250 50 0 empty empty empty 17 7 0 10 -262144 -1
-1;
#X obj 422 317 vline~;
#X obj 422 409 *~;
#X obj 441 360 osc~ 440;
#X obj 422 431 *~ 0.5;
#X obj 422 473 dac~;
#X obj 465 33 r attack-time;
#X msg 422 85 1;
#X obj 492 54 r sustain-time;
#X obj 519 76 r decay-time;
#X obj 422 117 pack f f f f;
#X obj 422 153 unpack f f f f;
#X obj 470 191 +;
#X obj 422 230 pack f f f f;
#X msg 422 265 0 \, \$1 \$2 \, 0 \$4 \$3;
#X obj 316 25 r control-change;
#X obj 77 43 control attack-time 0 1000;
#X obj 77 123 control decay-time 0 1000;
#X obj 77 83 control sustain-time 0 1000;
#X connect 0 0 7 0;
#X connect 1 0 2 0;
#X connect 2 0 4 0;
#X connect 3 0 2 1;
#X connect 4 0 5 0;
#X connect 4 0 5 1;
#X connect 6 0 10 1;
#X connect 7 0 10 0;
#X connect 8 0 10 2;
#X connect 9 0 10 3;
#X connect 10 0 11 0;
#X connect 11 0 13 0;
#X connect 11 1 12 0;
#X connect 11 1 13 1;
#X connect 11 2 12 1;
#X connect 11 3 13 3;
#X connect 12 0 13 2;
#X connect 13 0 14 0;
#X connect 14 0 1 0;
#X connect 15 0 7 0;
