#N canvas 684 291 728 735 10;
#X obj 422 609 *~;
#X obj 441 570 osc~ 440;
#X obj 422 631 *~ 0.5;
#X obj 422 673 dac~;
#X obj 465 33 r attack-time;
#X obj 492 54 r sustain-time;
#X obj 519 76 r decay-time;
#X obj 304 18 r control-change;
#X obj 304 47 bang;
#X obj 57 105 control sustain-time 0 1000;
#X obj 57 65 control attack-time 0 1000;
#X obj 57 145 control decay-time 0 1000;
#N canvas 0 50 450 250 (subpatch) 0;
#X array wave 44100 float 2;
#X coords 0 1 44100 -1 200 140 1 0 0;
#X restore 57 561 graph;
#X obj 305 674 tabwrite~ wave;
#X obj 59 16 bng 32 250 50 0 control-change control-change empty 17
7 0 10 -262144 -1 -1;
#X obj 441 452 r frequency;
#X obj 57 195 control frequency 50 5000;
#N canvas 65 81 450 250 (subpatch) 0;
#X array waveform 50 float 2;
#X coords 0 1 50 -1 200 140 1 0 0;
#X restore 57 401 graph;
#X obj 536 488 r control-change;
#X msg 494 547 0.25;
#N canvas 65 81 666 532 ASD 0;
#X obj 225 362 vline~;
#X msg 225 130 1;
#X obj 225 162 pack f f f f;
#X obj 225 198 unpack f f f f;
#X obj 273 236 +;
#X obj 225 275 pack f f f f;
#X msg 225 310 0 \, \$1 \$2 \, 0 \$4 \$3;
#X obj 164 49 inlet bang;
#X obj 274 52 inlet A;
#X obj 345 49 inlet S;
#X obj 435 46 inlet D;
#X obj 226 407 outlet~;
#X connect 0 0 11 0;
#X connect 1 0 2 0;
#X connect 2 0 3 0;
#X connect 3 0 5 0;
#X connect 3 1 4 0;
#X connect 3 1 5 1;
#X connect 3 2 4 1;
#X connect 3 3 5 3;
#X connect 4 0 5 2;
#X connect 5 0 6 0;
#X connect 6 0 0 0;
#X connect 7 0 1 0;
#X connect 8 0 2 1;
#X connect 9 0 2 2;
#X connect 10 0 2 3;
#X restore 421 126 pd ASD;
#N canvas 188 256 414 382 waveform-sampler 0;
#X obj 77 40 inlet bang;
#X obj 209 45 inlet frequency;
#X obj 77 215 t b b;
#X obj 191 232 f;
#X obj 191 262 array size waveform;
#X obj 77 293 tabwrite~ waveform;
#X obj 227 177 samplerate~;
#X obj 227 151 loadbang;
#X obj 209 205 *;
#X obj 209 102 swap 1;
#X obj 209 124 /;
#X obj 8 216 inlet~;
#X connect 0 0 2 0;
#X connect 1 0 9 0;
#X connect 2 0 5 0;
#X connect 2 1 3 0;
#X connect 3 0 4 0;
#X connect 6 0 8 1;
#X connect 7 0 6 0;
#X connect 8 0 3 1;
#X connect 9 0 10 0;
#X connect 9 1 10 1;
#X connect 10 0 8 0;
#X connect 11 0 5 0;
#X restore 471 607 pd waveform-sampler;
#X obj 601 581 r frequency;
#X connect 0 0 2 0;
#X connect 0 0 13 0;
#X connect 1 0 0 1;
#X connect 1 0 21 0;
#X connect 2 0 3 0;
#X connect 2 0 3 1;
#X connect 4 0 20 1;
#X connect 5 0 20 2;
#X connect 6 0 20 3;
#X connect 7 0 8 0;
#X connect 8 0 13 0;
#X connect 8 0 20 0;
#X connect 15 0 1 0;
#X connect 18 0 19 0;
#X connect 18 0 21 1;
#X connect 19 0 1 1;
#X connect 20 0 0 0;
#X connect 22 0 21 2;
