#N canvas 561 362 450 300 10;
#X obj 161 32 loadbang;
#X obj 161 54 f \$2;
#X obj 161 76 - \$1;
#X obj 81 45 inlet~;
#X obj 89 195 outlet~;
#X obj 93 114 *~ 1;
#X obj 93 136 +~ \$1;
#X connect 0 0 1 0;
#X connect 1 0 2 0;
#X connect 2 0 5 1;
#X connect 3 0 5 0;
#X connect 5 0 6 0;
#X connect 6 0 4 0;
