#N canvas 642 313 450 300 10;
#X obj 86 46 inlet~;
#X obj 203 46 inlet;
#X obj 84 175 *~ 0.5;
#X obj 241 128 swap 1;
#X obj 241 150 -;
#X obj 202 174 *~ 0.5;
#X obj 84 197 outlet~;
#X obj 202 196 outlet~;
#X connect 0 0 2 0;
#X connect 0 0 5 0;
#X connect 1 0 2 1;
#X connect 1 0 3 0;
#X connect 2 0 6 0;
#X connect 3 0 4 0;
#X connect 3 1 4 1;
#X connect 4 0 5 1;
#X connect 5 0 7 0;
