#N canvas 711 259 753 732 10;
#X obj 262 79 noise~;
#X obj 298 524 *~ 0.5;
#X obj 357 637 dac~;
#X obj 404 97 random 32768;
#X obj 404 119 / 32767;
#X obj 404 141 sig~ 0;
#X obj 264 200 *~;
#X obj 404 31 loadbang;
#X obj 192 319 *~;
#X obj 404 75 metro 4000;
#X obj 404 163 lop~ 2;
#X obj 76 306 osc~;
#X obj 75 273 +~ 500;
#X obj 75 238 *~ -100;
#X obj 112 79 *~ 2;
#X obj 112 101 -~ 1;
#X obj 112 132 clip~ 0 1;
#X obj 97 191 lop~ 20;
#X obj 457 268 osc~ 0.3;
#X obj 457 290 +~ 1;
#X obj 458 312 *~ 0.5;
#X text 560 22 MISSING ~/;
#X obj 458 334 +~ 0.1;
#X obj 384 323 *~ 200;
#X obj 384 345 +~ 300;
#X text 560 46 MISSING vcf~ right outlet;
#X obj 307 381 vcf~ 100.5;
#X obj 404 185 *~ 0.1;
#X obj 404 207 +~ 0.05;
#X obj 160 509 *~;
#X obj 112 57 phasor~ 6;
#X obj 221 31 * 6;
#X obj 221 53 + 2;
#X obj 205 412 clip 0 1;
#X obj 205 368 * 100;
#X obj 199 490 lop~ 10;
#X obj 203 448 sig~ 0;
#X obj 205 390 - 50;
#X obj 576 176 r sea;
#X obj 576 259 clip 0 1;
#X obj 339 454 *~ 1;
#X obj 45 403 select 0 1 2;
#X msg 45 425 100;
#X msg 86 425 80;
#X msg 124 426 50;
#X obj 45 381 r toads;
#X obj 429 497 r master;
#X obj 356 581 *~ 1;
#X connect 0 0 6 0;
#X connect 1 0 47 0;
#X connect 3 0 4 0;
#X connect 4 0 5 0;
#X connect 4 0 31 0;
#X connect 4 0 34 0;
#X connect 5 0 10 0;
#X connect 6 0 26 0;
#X connect 7 0 9 0;
#X connect 8 0 29 0;
#X connect 9 0 3 0;
#X connect 10 0 27 0;
#X connect 11 0 8 0;
#X connect 12 0 11 0;
#X connect 13 0 12 0;
#X connect 14 0 15 0;
#X connect 15 0 16 0;
#X connect 16 0 17 0;
#X connect 17 0 13 0;
#X connect 17 0 8 1;
#X connect 18 0 19 0;
#X connect 19 0 20 0;
#X connect 20 0 22 0;
#X connect 20 0 23 0;
#X connect 22 0 6 1;
#X connect 23 0 24 0;
#X connect 24 0 26 1;
#X connect 26 0 40 0;
#X connect 27 0 28 0;
#X connect 28 0 18 0;
#X connect 29 0 1 0;
#X connect 30 0 14 0;
#X connect 31 0 32 0;
#X connect 32 0 30 0;
#X connect 33 0 36 0;
#X connect 34 0 37 0;
#X connect 35 0 29 1;
#X connect 36 0 35 0;
#X connect 37 0 33 0;
#X connect 38 0 39 0;
#X connect 39 0 40 1;
#X connect 40 0 1 0;
#X connect 41 0 42 0;
#X connect 41 1 43 0;
#X connect 41 2 44 0;
#X connect 42 0 37 1;
#X connect 43 0 37 1;
#X connect 44 0 37 1;
#X connect 45 0 41 0;
#X connect 46 0 47 1;
#X connect 47 0 2 0;
#X connect 47 0 2 1;
