#N canvas 441 81 1479 892 10;
#X obj 662 295 noise~;
#X obj 611 867 dac~;
#X obj 358 96 random 32768;
#X obj 358 118 / 32767;
#X obj 358 140 sig~ 0;
#X obj 486 7 loadbang;
#X obj 39 340 *~;
#X obj 486 51 metro 4000;
#X obj 358 162 lop~ 2;
#X obj 63 305 osc~;
#X obj 729 217 osc~ 0.3;
#X obj 729 239 +~ 1;
#X obj 730 261 *~ 0.5;
#X text 1269 23 MISSING vcf~ right outlet;
#X obj 729 171 *~ 0.1;
#X obj 729 193 +~ 0.05;
#X obj 37 558 *~;
#X obj 59 58 phasor~ 6;
#X obj 80 424 clip 0 1;
#X obj 80 380 * 100;
#X obj 76 539 lop~ 10;
#X obj 80 497 sig~ 0;
#X obj 80 402 - 50;
#X obj 623 750 r master;
#X obj 603 661 *~;
#X obj 712 644 soft 500;
#X text 1271 39 MISSING list operations ...;
#X obj 62 281 +~;
#X obj 59 34 map 2 6;
#X obj 82 252 map~ 0 400;
#X obj 712 618 param sea 0.1 0.5 0.9;
#X obj 63 211 map~ 500 400;
#X obj 129 385 param toads 90 80 50;
#X obj 597 836 *~ 0;
#X obj 59 102 clip~ 0 1;
#X obj 60 167 lop~ 100;
#X obj 59 80 -~ 0.75;
#X obj 59 133 *~ 4;
#X obj 46 620 pan~;
#X obj 603 683 *~ 0.5;
#X obj 640 835 *~ 0;
#X obj 150 581 map 0.1 0.9;
#X obj 83 466 *;
#X obj 337 407 phasor~ 50;
#X obj 371 520 *~ 0;
#X obj 368 701 vpan~;
#X obj 417 645 +~ 1;
#X obj 417 667 *~ 0.5;
#X obj 336 433 *~ 2;
#X obj 336 455 -~ 1;
#X obj 1226 217 noise~;
#X text 1267 55 MISSING pow~;
#X obj 1223 546 clip~ 0 1;
#X obj 1222 568 *~ 2;
#X obj 1222 603 -~ 1;
#X obj 1226 315 lop~ 50;
#X obj 1225 431 *~ 40;
#X obj 1265 656 *~;
#X obj 1330 189 loadbang;
#X obj 1330 255 random 100;
#X obj 1330 277 moses 50;
#X text 1273 71 Missing <;
#X obj 1305 415 line~;
#X obj 1330 233 metro 4000;
#X obj 1268 136 param storm 5 10 50;
#X obj 396 475 param bugs 0.01 0.1 0.5;
#X obj 1306 717 param storm 0.1 0.3 0.5;
#X obj 1283 686 lop~ 400;
#X obj 1280 742 *~ 0;
#X obj 401 542 osc~ 0.13;
#X obj 401 564 clip~ 0 1;
#X obj 370 609 *~;
#X obj 406 205 loadbang;
#X obj 406 271 random 100;
#X obj 406 293 / 100;
#X obj 454 453 map 0.1 0.2;
#X obj 406 249 metro 1000;
#X obj 417 623 osc~ 0.03;
#X obj 688 368 +~ 100;
#X obj 594 506 lop~ 4500;
#X obj 662 404 vcf~ 0.5;
#X obj 688 346 *~ 500;
#X obj 712 557 *~;
#X obj 800 504 *~;
#X obj 763 341 *~;
#X obj 820 217 osc~;
#X obj 819 171 *~ 0.1;
#X obj 818 79 random 32768;
#X obj 818 101 / 32767;
#X obj 818 123 sig~ 0;
#X obj 818 145 lop~ 2;
#X obj 594 592 *~;
#X obj 639 545 *~ -1;
#X obj 639 567 +~ 1;
#X obj 711 503 hip~ 4500;
#X obj 819 193 +~ 0.1;
#X obj 845 435 vcf~ 0.5;
#X obj 871 399 +~ 1000;
#X obj 871 377 *~ 300;
#X obj 757 434 +~ 0.5;
#X obj 712 579 *~ 0.1;
#X obj 335 352 sig~ 0;
#X obj 335 374 lop~ 2;
#X obj 334 329 map 10 20;
#X text 1267 87 Missing vline~;
#X text 1251 102 BUG with lop~ 1 accumulate ...;
#X obj 333 486 bp~ 3000;
#X obj 1319 465 *~;
#X msg 1295 350 1 4000;
#X msg 1355 356 0 4000;
#X obj 102 446 param toads 0.05 0.1 0.3;
#X obj 974 579 noise~;
#X obj 1034 305 loadbang;
#X text 1268 9 MISSING ~/;
#X text 1080 4 MISSING vcf~ Q factor;
#X text 1080 20 MISSING line;
#X obj 1027 483 cos;
#X obj 1034 329 metro 10;
#X obj 1032 419 f 0;
#X obj 1065 420 + 1;
#X obj 1032 441 / 100;
#X obj 1030 596 + 700;
#X obj 1027 528 * 200;
#X obj 1034 351 random 100;
#X obj 1034 373 / 100;
#X obj 1034 394 t b f;
#X obj 929 683 lop~ 100;
#X obj 1006 655 param storm 100 300 2000;
#X obj 1088 476 * 2.5;
#X obj 1088 542 + 600;
#X obj 1088 520 * 100;
#X obj 1088 498 cos;
#X obj 994 621 bp~ 1000 20;
#X connect 0 0 80 0;
#X connect 0 0 96 0;
#X connect 2 0 3 0;
#X connect 3 0 4 0;
#X connect 3 0 19 0;
#X connect 3 0 28 0;
#X connect 3 0 41 0;
#X connect 4 0 8 0;
#X connect 4 0 29 0;
#X connect 5 0 7 0;
#X connect 6 0 16 0;
#X connect 7 0 2 0;
#X connect 7 0 87 0;
#X connect 8 0 14 0;
#X connect 9 0 6 1;
#X connect 10 0 11 0;
#X connect 11 0 12 0;
#X connect 12 0 81 0;
#X connect 12 0 84 0;
#X connect 12 0 84 1;
#X connect 14 0 15 0;
#X connect 15 0 10 0;
#X connect 16 0 38 0;
#X connect 17 0 36 0;
#X connect 18 0 42 0;
#X connect 19 0 22 0;
#X connect 20 0 16 1;
#X connect 21 0 20 0;
#X connect 22 0 18 0;
#X connect 23 0 33 1;
#X connect 23 0 40 1;
#X connect 24 0 39 0;
#X connect 25 0 24 1;
#X connect 27 0 9 0;
#X connect 28 0 17 0;
#X connect 29 0 27 1;
#X connect 30 0 25 0;
#X connect 31 0 27 0;
#X connect 32 0 22 1;
#X connect 33 0 1 0;
#X connect 34 0 37 0;
#X connect 35 0 31 0;
#X connect 35 0 6 0;
#X connect 36 0 34 0;
#X connect 37 0 35 0;
#X connect 38 0 33 0;
#X connect 38 1 40 0;
#X connect 39 0 33 0;
#X connect 39 0 40 0;
#X connect 40 0 1 1;
#X connect 41 0 38 1;
#X connect 42 0 21 0;
#X connect 43 0 48 0;
#X connect 44 0 71 0;
#X connect 45 0 33 0;
#X connect 45 1 40 0;
#X connect 46 0 47 0;
#X connect 47 0 45 1;
#X connect 48 0 49 0;
#X connect 49 0 106 0;
#X connect 50 0 55 0;
#X connect 52 0 53 0;
#X connect 53 0 54 0;
#X connect 54 0 57 0;
#X connect 55 0 56 0;
#X connect 56 0 52 0;
#X connect 57 0 67 0;
#X connect 58 0 63 0;
#X connect 59 0 60 0;
#X connect 60 0 108 0;
#X connect 60 1 109 0;
#X connect 62 0 107 0;
#X connect 62 0 107 1;
#X connect 63 0 59 0;
#X connect 64 0 60 1;
#X connect 65 0 44 1;
#X connect 66 0 68 1;
#X connect 67 0 68 0;
#X connect 68 0 40 0;
#X connect 68 0 33 0;
#X connect 69 0 70 0;
#X connect 70 0 71 1;
#X connect 71 0 45 0;
#X connect 72 0 76 0;
#X connect 73 0 74 0;
#X connect 74 0 75 0;
#X connect 74 0 103 0;
#X connect 75 0 69 0;
#X connect 76 0 73 0;
#X connect 77 0 46 0;
#X connect 78 0 80 1;
#X connect 79 0 91 0;
#X connect 80 0 79 0;
#X connect 81 0 78 0;
#X connect 82 0 100 0;
#X connect 83 0 82 1;
#X connect 84 0 92 0;
#X connect 84 0 99 0;
#X connect 85 0 83 1;
#X connect 85 0 98 0;
#X connect 86 0 95 0;
#X connect 87 0 88 0;
#X connect 88 0 89 0;
#X connect 89 0 90 0;
#X connect 90 0 86 0;
#X connect 91 0 24 0;
#X connect 92 0 93 0;
#X connect 93 0 91 1;
#X connect 94 0 82 0;
#X connect 95 0 85 0;
#X connect 96 0 94 0;
#X connect 97 0 96 1;
#X connect 98 0 97 0;
#X connect 99 0 83 0;
#X connect 100 0 24 0;
#X connect 101 0 102 0;
#X connect 102 0 43 0;
#X connect 103 0 101 0;
#X connect 106 0 44 0;
#X connect 107 0 57 1;
#X connect 108 0 62 0;
#X connect 109 0 62 0;
#X connect 110 0 42 1;
#X connect 111 0 132 0;
#X connect 112 0 117 0;
#X connect 116 0 122 0;
#X connect 117 0 123 0;
#X connect 118 0 119 0;
#X connect 118 0 120 0;
#X connect 119 0 118 1;
#X connect 120 0 116 0;
#X connect 120 0 128 0;
#X connect 121 0 132 1;
#X connect 122 0 121 0;
#X connect 123 0 124 0;
#X connect 124 0 125 0;
#X connect 125 0 118 0;
#X connect 125 1 119 1;
#X connect 126 0 33 0;
#X connect 126 0 40 0;
#X connect 127 0 126 1;
#X connect 128 0 131 0;
#X connect 129 0 121 1;
#X connect 130 0 129 0;
#X connect 131 0 130 0;
#X connect 132 0 126 0;
