#N canvas 620 380 450 300 10;
#X obj 67 16 inlet;
#X obj 58 140 line~;
#X obj 58 162 outlet~;
#X obj 113 71 f \$1;
#X obj 113 49 loadbang;
#X obj 59 103 pack f f;
#X connect 0 0 5 0;
#X connect 1 0 2 0;
#X connect 3 0 5 1;
#X connect 4 0 3 0;
#X connect 5 0 1 0;
