#N canvas 614 431 450 300 10;
#X obj 100 39 inlet~;
#X obj 97 182 outlet~;
#X obj 203 185 outlet~;
#X obj 218 32 inlet~;
#X obj 96 148 *~;
#X obj 204 99 *~;
#X obj 114 98 *~ -1;
#X obj 114 120 +~ 1;
#X connect 0 0 4 0;
#X connect 0 0 5 0;
#X connect 3 0 5 1;
#X connect 3 0 6 0;
#X connect 4 0 1 0;
#X connect 5 0 2 0;
#X connect 6 0 7 0;
#X connect 7 0 4 1;
